<svg width="18" height="27" viewBox="0 0 18 27" fill="none" xmlns="http://www.w3.org/2000/svg">
<path d="M17.4913 13.9642C16.9913 8.741 14.4975 5 12.5 2.5L11.5 1.5L10.25 0.75L9 0C7 1 4.5 5 3 7C1.5 9 0.595359 11.1216 0.5 13.5236C0.404641 15.9256 1.09376 18.2901 2.45433 20.2294C3.8149 22.1687 5.76615 23.5675 7.98805 24.1966V25.4554C7.98805 25.7324 8.09345 25.9981 8.28105 26.194C8.46865 26.3899 8.72309 26.5 8.98839 26.5C9.2537 26.5 9.50814 26.3899 9.69574 26.194C9.88334 25.9981 9.98873 25.7324 9.98873 25.4554V24.1966C12.1422 23.5889 14.0439 22.2573 15.4001 20.4078C16.7562 18.5582 17.4911 16.2937 17.4913 13.9642ZM9.98873 22.008V18.8814L14.3442 14.333C14.4353 14.2345 14.4857 14.1025 14.4846 13.9656C14.4835 13.8286 14.4309 13.6976 14.3381 13.6008C14.2454 13.5039 14.1199 13.449 13.9888 13.4478C13.8576 13.4466 13.7313 13.4993 13.637 13.5944L9.98873 17.4043V13.6582V12.181C9.98873 12 9.85759 12.1798 9.98873 12.181V8.741C9.98873 8.46394 9.88334 8.19823 9.69574 8.00232C9.50814 7.80641 9.2537 7.69635 8.98839 7.69635C8.72309 7.69635 8.46865 7.80641 8.28105 8.00232C8.09345 8.19823 7.98805 8.46394 7.98805 8.741V12.181L7.98905 13.6582C9.63561 15.3787 8.1192 12.1798 7.98805 12.181C8.08079 12.0842 7.85691 12.1822 7.98805 12.181C7.98919 12.0441 7.89532 12.2779 7.98805 12.181C7.98691 12.318 7.99128 13 7.99128 13L7.98905 13.6582V17.4043L4.34181 13.5955C4.24748 13.5003 4.12114 13.4477 3.98999 13.4489C3.85885 13.4501 3.7334 13.505 3.64067 13.6018C3.54793 13.6987 3.49533 13.8297 3.49419 13.9666C3.49305 14.1036 3.54346 14.2355 3.63457 14.334L7.99005 18.8824V22.008C6.2998 21.4032 4.84683 20.2348 3.8549 18.6829C2.86298 17.131 2.38711 15.2815 2.5006 13.4194C2.61408 11.5573 2.97999 8.8927 3.98999 7.69635C5 6.5 7.48551 2 8.98839 2C10.4913 2 13.335 5.30597 13.9888 7.00969C14.6426 8.71341 15.3609 11.5571 15.4746 13.4188C15.5883 15.2805 15.1129 17.1297 14.1217 18.6816C13.1305 20.2336 11.6783 21.4023 9.98873 22.008Z" fill="white"/>
</svg>
