<svg width="18" height="18" viewBox="0 0 18 18" fill="none" xmlns="http://www.w3.org/2000/svg">
<path fill-rule="evenodd" clip-rule="evenodd" d="M1 0C0.734784 0 0.48043 0.105357 0.292893 0.292893C0.105357 0.48043 0 0.734784 0 1V9C0 9.6 0.4 10 1 10H2V12C2.00275 12.1957 2.06288 12.3863 2.17294 12.5482C2.283 12.7101 2.43815 12.8361 2.61915 12.9106C2.80015 12.9852 2.99905 13.0049 3.19118 12.9675C3.38331 12.93 3.56023 12.837 3.7 12.7L6.4 10H12C12.6 10 13 9.6 13 9V1C13 0.4 12.6 0 12 0H1Z" fill="white"/>
<path fill-rule="evenodd" clip-rule="evenodd" d="M5 14.2H5.1L7.2 12H12C12.7956 12 13.5587 11.6839 14.1213 11.1213C14.6839 10.5587 15 9.79565 15 9V5H17C17.6 5 18 5.4 18 6V14C18 14.6 17.6 15 17 15H16V17C15.9973 17.1957 15.9371 17.3863 15.8271 17.5482C15.717 17.7101 15.5618 17.8361 15.3808 17.9106C15.1998 17.9852 15.001 18.0049 14.8088 17.9675C14.6167 17.93 14.4398 17.837 14.3 17.7L11.6 15H6C5.76605 15.0047 5.53786 14.9272 5.35514 14.7811C5.17242 14.6349 5.04675 14.4293 5 14.2Z" fill="white"/>
</svg>
